<svg width="589" height="212" viewBox="0 0 589 212" fill="none" xmlns="http://www.w3.org/2000/svg">
<path fill-rule="evenodd" clip-rule="evenodd" d="M29.7001 123C25.9001 117 22.3001 110.5 18.9001 103.5C15.5001 96.5 13.1001 90.2 11.7001 84.6C10.3001 78.4 9.60008 72.1 9.60008 65.7C9.60008 51.3 13.6001 39.2 21.6001 29.4C29.4001 19.4 39.7001 12 52.5001 7.2C65.3001 2.39999 78.8001 0 93.0001 0C119.6 0 140.9 6.39999 156.9 19.2C171.975 31.4126 181.588 47.8125 185.739 68.4C185.939 69.3903 186.126 70.3903 186.3 71.4H168C167 64.8 164.5 57.7 160.5 50.1C156.3 42.5 150.6 36 143.4 30.6C136.2 25.2 127.7 22.5 117.9 22.5C110.7 22.5 105 24.5 100.8 28.5C96.6001 32.3 94.5001 37.5 94.5001 44.1C94.5001 56.9 105.8 79.8 128.4 112.8L194.1 211.8H9.15527e-05V193.8H75.9001L29.7001 123ZM3.00009 196.8H81.4399L32.2345 121.395C32.2309 121.389 32.2272 121.383 32.2236 121.378C28.4931 115.486 24.9508 109.091 21.5986 102.189C18.2671 95.3302 15.9559 89.241 14.6189 83.9058C13.2732 77.9349 12.6001 71.8677 12.6001 65.7C12.6001 51.8904 16.4211 40.4882 23.9241 31.2971L23.9451 31.2713L23.9656 31.2451C31.3989 21.7152 41.2294 14.6305 53.5535 10.009C66.0036 5.34016 79.1457 3 93.0001 3C119.12 3 139.692 9.27856 155.018 21.5362C169.351 33.1502 178.588 48.7129 182.677 68.4H170.514C169.248 62.1468 166.773 55.5773 163.155 48.7028L163.141 48.6757L163.126 48.6489C158.713 40.6642 152.727 33.8449 145.2 28.2C137.434 22.3754 128.288 19.5 117.9 19.5C110.14 19.5 103.641 21.6671 98.759 26.3011C93.8441 30.763 91.5001 36.8201 91.5001 44.1C91.5001 51.2252 94.5948 60.6715 100.285 72.2025C106.02 83.826 114.578 97.9253 125.913 114.477C125.917 114.483 125.921 114.489 125.925 114.495L188.509 208.8H3.00009V196.8Z" fill="#014EFF"/>
<path d="M261.639 79C276.759 79 287.825 81.9553 294.835 87.866C301.983 93.6392 305.557 102.643 305.557 114.876C305.557 126.973 301.983 135.907 294.835 141.68C287.687 147.316 276.691 150.134 261.845 150.134H244.113V179.825H227V79H261.639ZM263.701 134.876C272.773 134.876 279.096 133.158 282.67 129.722C286.381 126.285 288.237 120.856 288.237 113.433C288.237 106.56 286.107 101.68 281.845 98.7938C277.584 95.9072 270.711 94.4639 261.227 94.4639H244.113V134.876H263.701Z" fill="#FF6B00"/>
<path d="M369.622 179.825H354.983V169.515C348.522 177.213 340 181.062 329.416 181.062C321.306 181.062 314.639 178.794 309.416 174.258C304.33 169.584 301.787 163.536 301.787 156.113C301.787 148.691 304.536 143.055 310.034 139.206C315.533 135.357 323.093 133.433 332.715 133.433H353.746V130.546C353.746 120.375 348.041 115.289 336.632 115.289C329.484 115.289 322.062 117.9 314.364 123.124L307.148 113.021C316.632 105.598 327.216 101.887 338.9 101.887C348.385 101.887 355.876 104.292 361.375 109.103C366.873 113.777 369.622 120.856 369.622 130.34V179.825ZM353.539 144.773H335.395C323.711 144.773 317.869 148.416 317.869 155.701C317.869 159.412 319.313 162.299 322.199 164.361C325.086 166.285 329.141 167.247 334.364 167.247C339.725 167.247 344.261 165.804 347.972 162.918C351.684 159.893 353.539 155.976 353.539 151.165V144.773Z" fill="#FF6B00"/>
<path d="M447.254 103.124V169.928C447.254 183.124 443.68 193.227 436.532 200.237C429.384 207.247 419.831 210.753 407.872 210.753C396.601 210.753 386.154 207.11 376.532 199.825L384.161 187.66C391.858 193.296 399.487 196.113 407.047 196.113C423.542 196.113 431.79 187.866 431.79 171.371V161.474C429.453 166.01 426.016 169.653 421.48 172.402C416.944 175.014 411.927 176.32 406.429 176.32C396.257 176.32 387.872 172.814 381.274 165.804C374.814 158.656 371.583 149.79 371.583 139.206C371.583 128.485 374.814 119.619 381.274 112.608C387.872 105.46 396.257 101.887 406.429 101.887C416.601 101.887 424.848 106.079 431.171 114.464V103.124H447.254ZM409.109 161.68C415.57 161.68 420.862 159.481 424.986 155.082C429.109 150.546 431.171 144.979 431.171 138.381C431.171 131.646 429.04 126.079 424.779 121.68C420.656 117.144 415.364 114.876 408.903 114.876C402.443 114.876 397.219 117.213 393.233 121.887C389.384 126.423 387.46 131.921 387.46 138.381C387.46 144.979 389.453 150.546 393.439 155.082C397.425 159.481 402.649 161.68 409.109 161.68Z" fill="#FF6B00"/>
<path d="M489.919 166.629C496.93 166.629 502.703 164.292 507.239 159.619C511.912 154.945 514.249 148.897 514.249 141.474C514.249 134.052 511.912 128.003 507.239 123.33C502.703 118.656 496.93 116.32 489.919 116.32C482.909 116.32 477.136 118.656 472.6 123.33C468.064 128.003 465.796 134.052 465.796 141.474C465.796 148.897 468.064 154.876 472.6 159.412C477.136 164.223 482.909 166.629 489.919 166.629ZM489.919 181.062C478.373 181.062 468.751 177.282 461.053 169.722C453.356 162.024 449.507 152.608 449.507 141.474C449.507 130.34 453.356 120.993 461.053 113.433C468.751 105.735 478.373 101.887 489.919 101.887C501.466 101.887 511.088 105.735 518.785 113.433C526.483 120.993 530.332 130.34 530.332 141.474C530.332 152.196 526.483 161.543 518.785 169.515C511.088 177.213 501.466 181.062 489.919 181.062Z" fill="#FF6B00"/>
<path d="M558.999 181.062C546.628 181.062 535.494 177.213 525.597 169.515L533.432 156.938C542.229 163.674 550.889 167.041 559.411 167.041C562.985 167.041 565.803 166.217 567.865 164.567C570.064 162.78 571.164 160.581 571.164 157.969C571.164 154.12 566.078 150.684 555.906 147.66C555.631 147.522 555.287 147.385 554.875 147.247C554.6 147.11 554.394 147.041 554.256 147.041C538.311 142.78 530.339 135.564 530.339 125.392C530.339 118.244 533.019 112.54 538.38 108.278C543.878 104.017 551.095 101.887 560.03 101.887C568.827 101.887 577.212 104.498 585.184 109.722L579.205 121.68C573.019 117.557 566.215 115.495 558.793 115.495C550.133 115.495 545.803 118.244 545.803 123.742C545.803 126.079 546.628 127.797 548.277 128.897C550.064 129.859 552.951 130.821 556.937 131.784C562.985 133.433 568.071 135.082 572.195 136.732C574.944 137.969 577.349 139.275 579.411 140.649C584.634 144.223 587.246 149.653 587.246 156.938C587.246 164.086 584.566 169.928 579.205 174.464C573.982 178.863 567.246 181.062 558.999 181.062Z" fill="#FF6B00"/>
<path fill-rule="evenodd" clip-rule="evenodd" d="M295.463 142.458L295.454 142.466C288.049 148.304 276.784 151.134 261.845 151.134H245.113V180.825H226V78H261.639C276.848 78 288.196 80.9651 295.472 87.0952C302.388 92.686 306.017 101.134 306.501 112.257L306.531 112.233C316.186 104.677 326.986 100.887 338.9 100.887C348.55 100.887 356.298 103.336 362.027 108.345C367.811 113.264 370.622 120.663 370.622 130.34V137.182C371.008 127.138 374.301 118.699 380.539 111.931C387.336 104.567 395.992 100.887 406.429 100.887C415.985 100.887 423.918 104.491 430.171 111.645V102.124H448.254V169.928C448.254 183.303 444.627 193.698 437.232 200.951C429.862 208.18 420.038 211.753 407.872 211.753C396.367 211.753 385.711 208.029 375.928 200.622L375.198 200.069L383.884 186.218L384.752 186.853C392.323 192.396 399.75 195.113 407.047 195.113C415.141 195.113 421.027 193.091 424.897 189.221C428.767 185.351 430.79 179.464 430.79 171.371V165.083C428.523 168.355 425.59 171.081 421.999 173.257L421.989 173.263L421.979 173.269C417.284 175.972 412.093 177.32 406.429 177.32C395.999 177.32 387.345 173.713 380.546 166.489L380.539 166.482L380.532 166.475C374.303 159.582 371.008 151.14 370.622 141.206V180.825H353.983V172.118C347.557 178.748 339.344 182.062 329.416 182.062C321.109 182.062 314.196 179.733 308.76 175.013L308.749 175.004L308.739 174.994C303.431 170.116 300.787 163.793 300.787 156.113C300.787 148.405 303.664 142.445 309.461 138.387C315.186 134.38 322.973 132.433 332.715 132.433H352.746V130.546C352.746 125.646 351.377 122.145 348.802 119.85C346.205 117.534 342.209 116.289 336.632 116.289C329.737 116.289 322.507 118.807 314.926 123.951L314.118 124.499L306.549 113.903C306.554 114.225 306.557 114.55 306.557 114.876C306.557 127.172 302.916 136.439 295.463 142.458ZM353.746 133.433H332.715C323.093 133.433 315.533 135.357 310.034 139.206C304.536 143.055 301.787 148.691 301.787 156.113C301.787 163.536 304.33 169.584 309.416 174.258C314.639 178.794 321.306 181.062 329.416 181.062C339.463 181.062 347.652 177.594 353.983 170.658C354.321 170.287 354.655 169.906 354.983 169.515V179.825H369.622V130.34C369.622 120.856 366.873 113.777 361.375 109.103C355.876 104.292 348.385 101.887 338.9 101.887C327.216 101.887 316.632 105.598 307.148 113.021L314.364 123.124C322.062 117.9 329.484 115.289 336.632 115.289C348.041 115.289 353.746 120.375 353.746 130.546V133.433ZM430.79 163.252C431.143 162.675 431.476 162.083 431.79 161.474V171.371C431.79 187.866 423.542 196.113 407.047 196.113C399.754 196.113 392.396 193.491 384.974 188.245C384.703 188.053 384.432 187.858 384.161 187.66L376.532 199.825C386.154 207.11 396.601 210.753 407.872 210.753C419.831 210.753 429.384 207.247 436.532 200.237C443.68 193.227 447.254 183.124 447.254 169.928V103.124H431.171V114.464C430.843 114.029 430.51 113.605 430.171 113.192C423.987 105.655 416.073 101.887 406.429 101.887C396.257 101.887 387.872 105.46 381.274 112.608C374.814 119.619 371.583 128.485 371.583 139.206C371.583 149.79 374.814 158.656 381.274 165.804C387.872 172.814 396.257 176.32 406.429 176.32C411.927 176.32 416.944 175.014 421.48 172.402C425.408 170.022 428.511 166.972 430.79 163.252ZM244.113 150.134H261.845C276.691 150.134 287.687 147.316 294.835 141.68C301.983 135.907 305.557 126.973 305.557 114.876C305.557 102.643 301.983 93.6392 294.835 87.866C287.825 81.9553 276.759 79 261.639 79H227V179.825H244.113V150.134ZM281.984 128.994L281.991 128.988C285.418 125.815 287.237 120.708 287.237 113.433C287.237 106.769 285.183 102.263 281.285 99.6217C277.278 96.9077 270.656 95.4639 261.227 95.4639H245.113V133.876H263.701C272.708 133.876 278.693 132.158 281.977 129.001L281.984 128.994ZM244.113 134.876V94.4639H261.227C270.711 94.4639 277.584 95.9072 281.845 98.7938C286.107 101.68 288.237 106.56 288.237 113.433C288.237 120.856 286.381 126.285 282.67 129.722C279.096 133.158 272.773 134.876 263.701 134.876H244.113ZM352.539 145.773H335.395C329.625 145.773 325.467 146.679 322.78 148.354C320.172 149.98 318.869 152.379 318.869 155.701C318.869 159.101 320.166 161.674 322.767 163.538C325.426 165.304 329.253 166.247 334.364 166.247C339.531 166.247 343.839 164.862 347.349 162.135C350.82 159.303 352.539 155.673 352.539 151.165V145.773ZM335.395 144.773C323.711 144.773 317.869 148.416 317.869 155.701C317.869 159.412 319.313 162.299 322.199 164.361C325.086 166.285 329.141 167.247 334.364 167.247C339.725 167.247 344.261 165.804 347.972 162.918C351.684 159.893 353.539 155.976 353.539 151.165V144.773H335.395ZM424.05 122.365L424.039 122.353C420.116 118.038 415.099 115.876 408.903 115.876C402.719 115.876 397.781 118.097 393.995 122.534C390.314 126.873 388.46 132.136 388.46 138.381C388.46 144.758 390.378 150.081 394.185 154.416C397.963 158.582 402.906 160.68 409.109 160.68C415.312 160.68 420.331 158.582 424.25 154.405C428.19 150.068 430.171 144.749 430.171 138.381C430.171 131.877 428.123 126.569 424.061 122.376L424.05 122.365ZM393.439 155.082C389.453 150.546 387.46 144.979 387.46 138.381C387.46 131.921 389.384 126.423 393.233 121.887C397.219 117.213 402.443 114.876 408.903 114.876C415.364 114.876 420.656 117.144 424.779 121.68C429.04 126.079 431.171 131.646 431.171 138.381C431.171 144.979 429.109 150.546 424.986 155.082C420.862 159.481 415.57 161.68 409.109 161.68C402.649 161.68 397.425 159.481 393.439 155.082ZM506.527 158.917L506.532 158.911C510.994 154.449 513.249 148.667 513.249 141.474C513.249 134.281 510.994 128.499 506.532 124.037L506.527 124.032L506.521 124.026C502.189 119.563 496.682 117.32 489.919 117.32C483.157 117.32 477.65 119.563 473.317 124.026C468.988 128.487 466.796 134.272 466.796 141.474C466.796 148.677 468.988 154.386 473.307 158.705L473.317 158.716L473.327 158.726C477.662 163.324 483.166 165.629 489.919 165.629C496.682 165.629 502.189 163.386 506.521 158.922L506.527 158.917ZM460.353 170.435L460.346 170.429C452.456 162.539 448.507 152.867 448.507 141.474C448.507 130.083 452.456 120.476 460.35 112.722C468.247 104.827 478.128 100.887 489.919 100.887C501.712 100.887 511.593 104.828 519.49 112.723C527.383 120.477 531.332 130.083 531.332 141.474C531.332 152.465 527.376 162.058 519.505 170.21L519.499 170.216L519.492 170.223C511.595 178.12 501.713 182.062 489.919 182.062C478.131 182.062 468.251 178.193 460.353 170.435ZM518.785 113.433C511.088 105.735 501.466 101.887 489.919 101.887C478.373 101.887 468.751 105.735 461.053 113.433C453.356 120.993 449.507 130.34 449.507 141.474C449.507 152.608 453.356 162.024 461.053 169.722C468.751 177.282 478.373 181.062 489.919 181.062C501.466 181.062 511.088 177.213 518.785 169.515C526.483 161.543 530.332 152.196 530.332 141.474C530.332 130.34 526.483 120.993 518.785 113.433ZM524.271 169.752L533.165 155.475L534.04 156.144C542.715 162.786 551.167 166.041 559.411 166.041C562.837 166.041 565.407 165.251 567.238 163.788C569.224 162.173 570.164 160.25 570.164 157.969C570.164 156.538 569.226 154.98 566.789 153.334C564.371 151.699 560.669 150.119 555.621 148.618L555.537 148.593L555.459 148.554C555.239 148.445 554.943 148.324 554.559 148.196L554.491 148.174L554.428 148.142C554.317 148.086 554.242 148.056 554.198 148.041C554.198 148.041 554.198 148.042 554.198 148.041L554.125 148.041L553.998 148.007C545.947 145.856 539.798 142.931 535.647 139.174C531.465 135.389 529.339 130.778 529.339 125.392C529.339 117.955 532.147 111.956 537.758 107.496L537.768 107.488C543.486 103.056 550.937 100.887 560.03 100.887C569.038 100.887 577.611 103.564 585.732 108.885L586.477 109.373L579.593 123.141L578.65 122.512C572.629 118.498 566.017 116.495 558.793 116.495C554.536 116.495 551.515 117.176 549.586 118.401C547.734 119.577 546.803 121.306 546.803 123.742C546.803 125.794 547.5 127.159 548.794 128.039C550.467 128.931 553.235 129.861 557.171 130.811L557.186 130.815L557.2 130.819C563.271 132.475 568.396 134.135 572.566 135.803L572.586 135.811L572.605 135.82C575.394 137.075 577.85 138.407 579.966 139.817L579.976 139.824C585.516 143.615 588.246 149.381 588.246 156.938C588.246 164.374 585.441 170.497 579.851 175.227L579.849 175.229C574.41 179.809 567.431 182.062 558.999 182.062C546.402 182.062 535.053 178.137 524.983 170.305L524.271 169.752ZM548.277 128.897C546.628 127.797 545.803 126.079 545.803 123.742C545.803 118.244 550.133 115.495 558.793 115.495C565.879 115.495 572.402 117.374 578.361 121.133C578.643 121.311 578.925 121.494 579.205 121.68L585.184 109.722C577.212 104.498 568.827 101.887 560.03 101.887C551.095 101.887 543.878 104.017 538.38 108.278C533.019 112.54 530.339 118.244 530.339 125.392C530.339 135.564 538.311 142.78 554.256 147.041C554.394 147.041 554.6 147.11 554.875 147.247C555.287 147.385 555.631 147.522 555.906 147.66C566.078 150.684 571.164 154.12 571.164 157.969C571.164 160.581 570.064 162.78 567.865 164.567C565.803 166.216 562.985 167.041 559.411 167.041C551.148 167.041 542.755 163.875 534.233 157.543C533.966 157.344 533.699 157.143 533.432 156.938L525.597 169.515C535.494 177.213 546.628 181.062 558.999 181.062C567.246 181.062 573.982 178.863 579.205 174.464C584.566 169.928 587.246 164.086 587.246 156.938C587.246 149.653 584.634 144.223 579.411 140.649C577.349 139.275 574.944 137.969 572.195 136.732C568.071 135.082 562.985 133.433 556.937 131.784C552.951 130.821 550.064 129.859 548.277 128.897ZM507.239 159.619C502.703 164.292 496.93 166.629 489.919 166.629C482.909 166.629 477.136 164.223 472.6 159.412C468.064 154.876 465.796 148.897 465.796 141.474C465.796 134.052 468.064 128.003 472.6 123.33C477.136 118.656 482.909 116.32 489.919 116.32C496.93 116.32 502.703 118.656 507.239 123.33C511.913 128.003 514.249 134.052 514.249 141.474C514.249 148.897 511.913 154.945 507.239 159.619Z" fill="#FF6B00"/>
</svg>
